<?xml version="1.0" encoding="utf-8"?>
<!-- Generator: Adobe Illustrator 19.2.1, SVG Export Plug-In . SVG Version: 6.00 Build 0)  -->
<svg version="1.1" id="Layer_1" xmlns="http://www.w3.org/2000/svg" xmlns:xlink="http://www.w3.org/1999/xlink" x="0px" y="0px"
	 viewBox="0 0 20 20" style="enable-background:new 0 0 20 20;" xml:space="preserve">
<style type="text/css">
	.st0{fill:#656565;}
</style>
<g>
	<g>
		<path class="st0" d="M18.7,4.3c-0.2-0.3-0.5-0.5-0.9-0.5H6.3C6.1,3.8,5.9,4,5.9,4.2s0.2,0.4,0.4,0.4h11.6c0.1,0,0.2,0.1,0.2,0.1
			c0,0,0.1,0.1,0,0.3l-2.8,5.8c-0.1,0.1-0.2,0.2-0.3,0.2H6.8L4.7,3.4l0,0c0-0.1-0.3-0.8-1.5-0.8H1.5c-0.2,0-0.4,0.2-0.4,0.4
			s0.2,0.4,0.4,0.4h1.7C3.8,3.3,4,3.6,4,3.6l2.1,7.6c0.4,1.5,1.2,2.2,2.4,2.2h6.8c0.2,0,0.4-0.2,0.4-0.4c0-0.2-0.2-0.4-0.4-0.4H8.5
			c-0.7,0-1.1-0.3-1.5-1h8c0.4,0,0.8-0.2,1-0.6l2.8-5.8C18.9,4.9,18.9,4.6,18.7,4.3z"/>
		<path class="st0" d="M7.9,14.6c0.6,0,1.1,0.5,1.1,1.1c0,0.6-0.5,1.1-1.1,1.1s-1.1-0.5-1.1-1.1C6.8,15.1,7.3,14.6,7.9,14.6 M7.9,14
			c-1,0-1.7,0.8-1.7,1.7s0.8,1.7,1.7,1.7s1.7-0.8,1.7-1.7S8.8,14,7.9,14L7.9,14z"/>
		<path class="st0" d="M15,14.6c0.6,0,1.1,0.5,1.1,1.1c0,0.6-0.5,1.1-1.1,1.1c-0.6,0-1.1-0.5-1.1-1.1C14,15.1,14.4,14.6,15,14.6
			 M15,14c-1,0-1.7,0.8-1.7,1.7s0.8,1.7,1.7,1.7s1.7-0.8,1.7-1.7S16,14,15,14L15,14z"/>
	</g>
</g>
</svg>
