<?xml version="1.0" encoding="utf-8"?>
<!-- Generator: Adobe Illustrator 19.2.1, SVG Export Plug-In . SVG Version: 6.00 Build 0)  -->
<svg version="1.1" id="Layer_1" xmlns="http://www.w3.org/2000/svg" xmlns:xlink="http://www.w3.org/1999/xlink" x="0px" y="0px"
	 viewBox="0 0 21 21" style="enable-background:new 0 0 21 21;" xml:space="preserve">
<style type="text/css">
	.st0{fill:#656565;}
</style>
<path class="st0" d="M18.3,7.2c-0.4-1-1-1.9-1.8-2.7c-0.8-0.8-1.7-1.4-2.7-1.8c-1-0.4-2.2-0.7-3.3-0.7C9.4,2,8.2,2.2,7.2,2.7
	c-1,0.4-1.9,1-2.7,1.8C3.7,5.3,3.1,6.2,2.7,7.2C2.2,8.2,2,9.4,2,10.5s0.2,2.3,0.7,3.3c0.4,1,1,1.9,1.8,2.7c0.8,0.8,1.7,1.4,2.7,1.8
	c1,0.4,2.2,0.7,3.3,0.7c1.1,0,2.3-0.2,3.3-0.7c1-0.4,1.9-1,2.7-1.8c0.8-0.8,1.4-1.7,1.8-2.7c0.4-1,0.7-2.2,0.7-3.3
	S18.8,8.2,18.3,7.2z M10.5,18.2c-2,0-3.9-0.8-5.3-2.1c0.3-0.2,0.7-0.4,1.3-0.5c0.7-0.1,1.3-0.4,1.7-0.5c0.3-0.1,0.5-0.4,0.5-0.8v0
	c0.5,0.4,1.1,0.6,1.7,0.6c0.5,0,0.9-0.1,1.3-0.3c0.1-0.1,0.3-0.2,0.4-0.2v0c0,0.4,0.2,0.7,0.5,0.8c0.4,0.2,1,0.4,1.7,0.5
	c0.6,0.1,1,0.3,1.3,0.5C14.4,17.5,12.5,18.2,10.5,18.2z M7.2,10c0-0.1,0.3-0.2,0.3-0.2c0-0.4-0.1-1-0.1-1.4c0-1.8,1.3-2.9,3.1-2.9
	s3.1,1.1,3.1,2.9c0,0.4,0,1-0.1,1.4c0,0,0,0,0.1,0c0.1,0,0.2,0,0.2,0.2c0,0.1,0.1,1.3-0.6,1.6c-0.1,0.6-0.4,1.2-0.8,1.7
	c-0.1,0-0.1,0.1-0.2,0.2c-0.4,0.5-1,0.8-1.7,0.8c-1.5,0-2.4-1.4-2.6-2.6C7.1,11.3,7.2,10.1,7.2,10z M16.2,15.7
	c-0.3-0.2-0.8-0.5-1.6-0.6c-0.7-0.1-1.3-0.3-1.6-0.5c-0.1,0-0.1-0.1-0.1-0.2v-0.6c0.4-0.5,0.7-1.1,0.9-1.8c0.2-0.2,0.5-0.5,0.6-1.1
	c0.1-0.4,0.1-0.8,0.1-0.9c0,0,0,0,0,0c0-0.2-0.1-0.4-0.2-0.5c0,0,0,0,0,0c0-0.4,0-0.7,0-1c0-0.5-0.1-1-0.3-1.5
	c-0.2-0.4-0.5-0.8-0.8-1.1c-0.3-0.3-0.7-0.5-1.2-0.7C11.5,5,11,4.9,10.5,4.9c-0.5,0-1,0.1-1.4,0.2C8.6,5.3,8.2,5.5,7.9,5.9
	C7.5,6.2,7.2,6.5,7,7C6.9,7.4,6.8,7.9,6.8,8.4c0,0.3,0,0.7,0.1,1C6.6,9.6,6.6,9.9,6.6,10c0,0,0,0,0,0c0,0.1,0,0.5,0.1,0.9
	c0.1,0.6,0.4,0.9,0.7,1.1c0.2,0.6,0.5,1.2,0.9,1.7v0.7c0,0.1-0.1,0.2-0.1,0.2c-0.4,0.1-0.9,0.3-1.6,0.5c-0.8,0.2-1.3,0.5-1.6,0.6
	c-1.3-1.4-2-3.2-2-5.2c0-4.3,3.5-7.7,7.7-7.7s7.7,3.5,7.7,7.7C18.2,12.5,17.5,14.3,16.2,15.7z"/>
</svg>
